# xmcd
#
# Track frame offsets: 
#        182
#        21605
#        43470
#        64880
#
# Disc length: 1158 seconds
#
# Revision: 2
# Processed by: cddbd v1.5.1PL0 Copyright (c) Steve Scherf et al.
# Submitted via: ExactAudioCopy v0.95a5
#
DISCID=3c048404
DTITLE=Total - Kissin' You
DYEAR=1996
DGENRE=R&B
TTITLE0=Album Verison
TTITLE1=Kissin' You/Oh Honey
TTITLE2=Album Version (Instrumental)
TTITLE3=Kissin' You/Oh Honey (Instrumental)
EXTD=
EXTT0=
EXTT1=
EXTT2=
EXTT3=
PLAYORDER=
